Coordinates
version=1
nRows=8
nColumns=33
inDegrees=yes

Units are S.I. units (second, meters, Newtons, ...)
Angles are in degrees.

endheader
time	ground_thorax_rot_x	ground_thorax_rot_y	ground_thorax_rot_z	ground_thorax_tx	ground_thorax_ty	ground_thorax_tz	clav_prot_r	clav_elev_r	scapula_abduction_r	scapula_elevation_r	scapula_upward_rot_r	scapula_winging_r	shoulder_elv_r	plane_of_elev_r	axial_rot_r	elbow_flexion_r	pro_sup_r	wrist_flex_r	wrist_dev_r	clav_prot_l	clav_elev_l	scapula_abduction_l	scapula_elevation_l	scapula_upward_rot_l	scapula_winging_l	shoulder_elv_l	plane_of_elev_l	axial_rot_l	elbow_flexion_l	pro_sup_l	wrist_flex_l	wrist_dev_l
      9.37000000	    -40.12646244	    -18.50406784	     28.17043881	     27.98124313	    786.31502873	    -68.49011482	     24.03113616	    -45.00000000	     33.08502831	    -45.00000000	    -45.00000000	  -2607.63894430	   -467.57938706	    164.25587392	     35.53382241	    357.02831997	    177.49922755	     21.83458224	     17.05763576	      6.48476944	     27.44203439	    -28.06452620	    -45.00000000	    -45.00000000	  -4248.20934549	  -1348.19614925	     16.33284201	   -179.99999979	      2.57174426	    184.10594404	      9.95420740	    -12.85730285
      9.38000000	    -40.26129440	    -18.07395789	     27.95500403	     24.94028570	    786.49657771	    -68.49622623	     23.57424345	    -45.00000000	     33.11298385	    -45.00000000	    -45.00000000	  -2608.23777422	   -467.71397310	    164.00071093	     35.60314145	    357.13915233	    176.76544061	     21.77602905	     17.23162325	      6.43359001	     27.24011115	    -28.39617017	    -45.00000000	    -45.00000000	  -4248.11116685	  -1348.37845385	     16.13959146	   -179.99999979	      2.68192957	    183.83732037	     10.02386937	    -12.88409171
      9.39000000	    -40.46140087	    -17.68840814	     27.53802250	     21.87728202	    786.72894484	    -68.50364783	     23.70280128	    -45.00000000	     32.97155555	    -45.00000000	    -45.00000000	  -2608.30187410	   -467.52864026	    164.01799621	     35.85908200	    356.97410437	    176.10169800	     21.72238404	     17.27204189	      6.34552971	     27.38088843	    -28.35279544	    -45.00000000	    -45.00000000	  -4247.92480680	  -1348.24834871	     16.23807752	   -179.99999979	      2.59895756	    183.68010413	     10.05092420	    -12.91978857
      9.40000000	    -40.47060164	    -17.43887986	     27.41876432	     18.79824942	    787.01649256	    -68.51119503	     23.56060509	    -45.00000000	     33.03225592	    -45.00000000	    -45.00000000	  -2608.62416358	   -467.51326112	    164.01397900	     36.08091064	    356.96179228	    175.50644132	     21.68640442	     17.39067239	      6.32112237	     27.40164678	    -28.34891200	    -45.00000000	    -45.00000000	  -4247.82646394	  -1348.27121356	     16.15595869	   -179.99999979	      2.65210014	    183.59375009	     10.08256546	    -12.92979231
      9.41000000	    -40.58219866	    -17.32969140	     27.21385911	     15.69241538	    787.36480459	    -68.51707674	     24.04765544	    -45.00000000	     32.95905636	    -45.00000000	    -45.00000000	  -2608.60934476	   -467.23298422	    164.30060626	     36.62193105	    356.85066194	    174.83806130	     21.60809828	     17.36383879	      6.24903525	     27.55330883	    -27.96142238	    -45.00000000	    -45.00000000	  -4247.58921237	  -1348.04509965	     16.41759365	   -179.99999979	      2.74239560	    183.58640386	     10.05333703	    -12.87537357
      9.42000000	    -40.63921784	    -17.00847975	     27.06665949	     12.58445240	    787.77444921	    -68.51946569	     23.55071634	    -45.00000000	     32.94166430	    -45.00000000	    -45.00000000	  -2609.20215543	   -467.27927362	    164.05145535	     36.74107818	    356.92202678	    174.29806999	     21.58115085	     17.52906496	      6.17907383	     27.44715591	    -28.15340387	    -45.00000000	    -45.00000000	  -4247.50492619	  -1348.17342081	     16.21178692	   -179.99999979	      2.72787759	    183.59892372	     10.10715933	    -12.96507841
      9.43000000	    -40.79193476	    -16.62042566	     26.69379633	      9.47759608	    788.24594164	    -68.51675855	     23.60350103	    -45.00000000	     32.92149070	    -45.00000000	    -45.00000000	  -2609.44641598	   -467.20980140	    164.00405810	     36.93966868	    356.84506240	    173.84607467	     21.54887979	     17.58009806	      6.05006744	     27.49401753	    -28.24726228	    -45.00000000	    -45.00000000	  -4247.36502176	  -1348.15507283	     16.21211932	   -179.99999979	      2.71101976	    183.61638352	     10.15936506	    -13.02752155
      9.44000000	    -40.89073981	    -16.43591323	     26.46549061	      6.36651315	    788.78063443	    -68.50783541	     23.87320942	    -45.00000000	     32.78556051	    -45.00000000	    -45.00000000	  -2609.40161835	   -467.00853263	    164.26949776	     37.23096237	    356.73182906	    173.34142539	     21.51002646	     17.57255334	      6.07210829	     27.62830180	    -27.94067155	    -45.00000000	    -45.00000000	  -4247.20416745	  -1347.94735315	     16.43195360	   -179.99999979	      2.79525583	    183.64449385	     10.13610790	    -12.98511604
